<svg width="200" height="200" viewBox="0 0 24 24" fill="none" xmlns="http://www.w3.org/2000/svg">
  <defs>
    <linearGradient id="blue_circle_gradient" x1="0%" y1="0%" x2="100%" y2="100%">
      <stop offset="0%" style="stop-color:#007CF0;stop-opacity:1" />
      <stop offset="100%" style="stop-color:#0052D4;stop-opacity:1" />
    </linearGradient>
  </defs>

  <!-- 蓝色圆形缩小为半径11（原12），与边缘保留1单位间距 -->
  <circle cx="12" cy="12" r="11.5" fill="url(#blue_circle_gradient)"/>

  <!-- 白色图案通过scale(0.9)缩小10%，transform-origin确保居中 -->
  <g transform="scale(0.8)" transform-origin="12 12">
    <path fill="#FFFFFF" fill-rule="evenodd" d="M15.688 2.343a2.588 2.588 0 00-3.61 0l-9.626 9.44a.863.863 0 01-1.203 0 .823.823 0 010-1.18l9.626-9.44a4.313 4.313 0 016.016 0 4.116 4.116 0 011.204 3.54 4.3 4.3 0 013.609 1.18l.05.05a4.115 4.115 0 010 5.9l-8.706 8.537a.274.274 0 000 .393l1.788 1.754a.823.823 0 010 1.18.863.863 0 01-1.203 0l-1.788-1.753a1.92 1.92 0 010-2.754l8.706-8.538a2.47 2.47 0 000-3.54l-.05-.049a2.588 2.588 0 00-3.607-.003l-7.172 7.034-.002.002-.098.097a.863.863 0 01-1.204 0 .823.823 0 010-1.18l7.273-7.133a2.47 2.47 0 00-.003-3.537z"></path>
    <path fill="#FFFFFF" fill-rule="evenodd" d="M14.485 4.703a.823.823 0 000-1.18.863.863 0 00-1.204 0l-7.119 6.982a4.115 4.115 0 000 5.9 4.314 4.314 0 006.016 0l7.12-6.982a.823.823 0 000-1.18.863.863 0 00-1.204 0l-7.119 6.982a2.588 2.588 0 01-3.61 0 2.47 2.47 0 010-3.54l7.12-6.982z"></path>
  </g>
</svg>